<svg xmlns="http://www.w3.org/2000/svg" xmlns:xlink="http://www.w3.org/1999/xlink" width="2000" zoomAndPan="magnify" viewBox="0 0 1500 1499.999933" height="2000" preserveAspectRatio="xMidYMid meet" version="1.0"><defs><clipPath id="136aaae9c7"><path d="M 495 334.648438 L 1006 334.648438 L 1006 1165.648438 L 495 1165.648438 Z M 495 334.648438 " clip-rule="nonzero"/></clipPath></defs><rect x="-150" width="1800" fill="#ffffff" y="-149.999993" height="1799.99992" fill-opacity="1"/><rect x="-150" width="1800" fill="#4a2fb5" y="-149.999993" height="1799.99992" fill-opacity="1"/><path fill="#f4f6fc" d="M 971.828125 805.253906 L 935.296875 787.433594 L 935.375 788.175781 L 847.195312 797.277344 C 847.210938 797.722656 847.21875 798.171875 847.234375 798.617188 L 847.507812 798.617188 C 847.507812 800.292969 847.464844 801.953125 847.378906 803.605469 C 847.492188 808.730469 847.527344 813.855469 847.453125 818.984375 L 934.375 818.984375 C 967.101562 819.261719 984.773438 853.113281 984.773438 853.113281 C 1007.199219 881.660156 994.339844 900.667969 994.339844 900.667969 L 968.882812 859.71875 L 934.375 838.242188 L 934.375 838.988281 L 846.679688 838.988281 C 845.734375 854.515625 843.941406 870.003906 841.316406 885.390625 L 841.832031 885.386719 C 841.539062 886.195312 841.222656 886.996094 840.910156 887.796875 C 840.074219 892.546875 839.179688 897.289062 838.183594 902.015625 L 827.425781 956.871094 L 827.429688 956.871094 C 827.429688 956.871094 827.425781 956.871094 827.425781 956.871094 L 815.855469 1015.890625 L 815.859375 1015.890625 C 815.859375 1015.894531 815.855469 1015.894531 815.855469 1015.898438 L 812.558594 1032.703125 C 811.597656 1037.613281 810.066406 1042.289062 808.070312 1046.683594 C 817.582031 1048 828.597656 1051.839844 839.441406 1058.097656 C 863.925781 1072.238281 878.222656 1093.316406 871.371094 1105.1875 C 865.8125 1114.8125 848.046875 1115.417969 828.464844 1107.753906 C 834.21875 1122.359375 834.09375 1135.253906 826.863281 1140.792969 C 815.988281 1149.128906 793.226562 1137.691406 776.027344 1115.246094 C 775.832031 1114.988281 775.65625 1114.722656 775.460938 1114.464844 C 774.9375 1141.789062 764.042969 1163.609375 750.671875 1163.609375 C 737.304688 1163.609375 726.410156 1141.789062 725.886719 1114.464844 C 725.691406 1114.722656 725.515625 1114.988281 725.316406 1115.246094 C 708.117188 1137.691406 685.359375 1149.128906 674.480469 1140.792969 C 667.25 1135.253906 667.125 1122.359375 672.882812 1107.753906 C 653.300781 1115.417969 635.53125 1114.8125 629.972656 1105.1875 C 623.121094 1093.316406 637.417969 1072.238281 661.90625 1058.097656 C 672.75 1051.839844 683.765625 1048 693.277344 1046.683594 C 691.277344 1042.289062 689.75 1037.613281 688.785156 1032.703125 L 685.492188 1015.898438 C 685.492188 1015.894531 685.488281 1015.894531 685.488281 1015.894531 L 685.492188 1015.894531 L 673.917969 956.871094 L 663.164062 902.015625 C 662.164062 897.296875 661.273438 892.5625 660.4375 887.820312 C 660.351562 887.605469 660.261719 887.394531 660.175781 887.175781 L 660.328125 887.175781 C 657.535156 871.199219 655.648438 855.113281 654.667969 838.988281 L 566.972656 838.988281 L 566.972656 838.242188 L 532.464844 859.71875 L 507.003906 900.667969 C 507.003906 900.667969 494.144531 881.660156 516.570312 853.113281 C 516.570312 853.113281 534.242188 819.261719 566.972656 818.984375 L 653.894531 818.984375 C 653.820312 813.855469 653.855469 808.730469 653.964844 803.601562 C 653.878906 801.953125 653.839844 800.289062 653.839844 798.617188 L 654.109375 798.617188 C 654.125 798.171875 654.132812 797.722656 654.152344 797.277344 L 565.96875 788.175781 L 566.046875 787.433594 L 529.515625 805.253906 L 499.988281 843.375 C 499.988281 843.375 489.148438 823.144531 514.386719 797.054688 C 514.386719 797.054688 535.441406 765.195312 568.023438 768.277344 L 655.34375 777.289062 C 656.105469 768.050781 657.164062 758.832031 658.523438 749.648438 L 569.675781 739.765625 C 537.179688 735.867188 523.359375 700.269531 523.359375 700.269531 C 504.226562 669.417969 519.109375 651.949219 519.109375 651.949219 L 539.882812 695.460938 L 571.804688 720.621094 L 570.90625 728.695312 L 571.886719 719.882812 L 661.921875 729.898438 C 663.183594 723.445312 664.558594 717.003906 666.121094 710.601562 L 666.535156 708.890625 L 579.398438 689.988281 C 547.472656 682.777344 537.382812 645.945312 537.382812 645.945312 C 521.515625 613.292969 538.113281 597.445312 538.113281 597.445312 L 554.3125 642.863281 L 583.480469 671.164062 L 583.640625 670.4375 L 671.277344 689.449219 L 674.855469 674.777344 L 605.742188 599.648438 C 559.507812 586.644531 525.601562 544.203125 525.601562 493.8125 C 525.601562 443.636719 567.140625 401.339844 613.074219 388.144531 L 613.074219 455.980469 C 613.074219 468.402344 623.144531 478.472656 635.566406 478.472656 L 635.566406 383.851562 C 652.09375 383.851562 665.492188 397.25 665.492188 413.777344 L 665.492188 603.773438 L 664.949219 603.773438 L 687.0625 627.8125 C 696.066406 605.539062 716.140625 589.574219 739.828125 585.796875 L 750.671875 556.132812 L 761.519531 585.796875 C 785.203125 589.574219 805.28125 605.539062 814.28125 627.8125 L 836.398438 603.773438 L 835.851562 603.773438 L 835.851562 413.777344 C 835.851562 397.25 849.25 383.851562 865.78125 383.851562 L 865.78125 478.472656 C 878.203125 478.472656 888.269531 468.402344 888.269531 455.980469 L 888.269531 388.144531 C 934.203125 401.339844 975.746094 443.636719 975.746094 493.8125 C 975.746094 544.203125 941.835938 586.644531 895.601562 599.648438 L 826.488281 674.777344 L 830.066406 689.449219 L 917.703125 670.4375 L 917.863281 671.164062 L 947.035156 642.859375 L 963.230469 597.445312 C 963.230469 597.445312 979.828125 613.292969 963.964844 645.945312 C 963.964844 645.945312 953.871094 682.777344 921.945312 689.988281 L 834.808594 708.890625 L 835.226562 710.601562 C 836.789062 717.003906 838.160156 723.445312 839.425781 729.898438 L 929.457031 719.882812 L 929.539062 720.621094 L 961.460938 695.460938 L 982.238281 651.949219 C 982.238281 651.949219 997.117188 669.417969 977.984375 700.269531 C 977.984375 700.269531 964.164062 735.867188 931.667969 739.765625 L 842.824219 749.648438 C 844.183594 758.832031 845.238281 768.050781 846.003906 777.289062 L 933.320312 768.277344 C 965.90625 765.195312 986.960938 797.054688 986.960938 797.054688 C 1012.199219 823.144531 1001.359375 843.375 1001.359375 843.375 Z M 971.828125 805.253906 " fill-opacity="1" fill-rule="nonzero"/><g clip-path="url(#136aaae9c7)"><path fill="#32312a" d="M 988.34375 796 C 988.335938 795.992188 988.332031 795.984375 988.324219 795.976562 C 988.324219 795.976562 988.320312 795.972656 988.320312 795.972656 C 988.289062 795.925781 988.238281 795.851562 988.1875 795.78125 C 988.15625 795.730469 988.117188 795.675781 988.074219 795.613281 C 988.03125 795.546875 987.976562 795.472656 987.921875 795.394531 C 987.859375 795.308594 987.792969 795.214844 987.722656 795.117188 C 987.664062 795.03125 987.597656 794.941406 987.53125 794.851562 C 987.449219 794.738281 987.363281 794.621094 987.269531 794.496094 C 987.191406 794.386719 987.109375 794.273438 987.019531 794.160156 C 986.921875 794.027344 986.816406 793.886719 986.707031 793.746094 C 986.609375 793.617188 986.507812 793.484375 986.402344 793.347656 C 986.292969 793.203125 986.175781 793.054688 986.054688 792.902344 C 985.925781 792.738281 985.796875 792.574219 985.660156 792.402344 C 985.550781 792.265625 985.433594 792.121094 985.316406 791.976562 C 985.152344 791.773438 984.988281 791.570312 984.8125 791.359375 C 984.703125 791.230469 984.589844 791.097656 984.480469 790.964844 C 984.277344 790.726562 984.074219 790.484375 983.863281 790.234375 C 983.761719 790.121094 983.65625 790 983.550781 789.878906 C 983.308594 789.601562 983.0625 789.320312 982.804688 789.03125 C 982.722656 788.941406 982.632812 788.84375 982.550781 788.75 C 982.257812 788.425781 981.960938 788.097656 981.648438 787.765625 C 981.59375 787.707031 981.539062 787.648438 981.484375 787.59375 C 972.835938 778.367188 956.507812 765.132812 934.875 766.441406 L 934.867188 766.375 L 933.167969 766.550781 C 933.164062 766.550781 933.160156 766.550781 933.160156 766.550781 L 931.417969 766.714844 L 931.421875 766.730469 L 847.523438 775.390625 C 846.828125 767.292969 845.90625 759.21875 844.757812 751.175781 L 896.941406 745.371094 L 930.136719 741.679688 L 930.140625 741.691406 L 931.820312 741.492188 L 931.828125 741.488281 L 933.582031 741.292969 L 933.574219 741.226562 C 933.578125 741.226562 933.578125 741.226562 933.578125 741.226562 C 954.117188 738.039062 967.039062 722.871094 973.796875 712.070312 C 973.800781 712.058594 973.808594 712.050781 973.8125 712.039062 C 974.105469 711.578125 974.378906 711.125 974.644531 710.679688 C 974.683594 710.617188 974.722656 710.550781 974.761719 710.484375 C 975 710.085938 975.222656 709.703125 975.441406 709.320312 C 975.5 709.214844 975.566406 709.105469 975.625 709 C 975.820312 708.65625 976 708.328125 976.179688 708.003906 C 976.253906 707.867188 976.332031 707.730469 976.402344 707.597656 C 976.558594 707.304688 976.710938 707.023438 976.855469 706.746094 C 976.9375 706.59375 977.015625 706.441406 977.09375 706.296875 C 977.21875 706.050781 977.339844 705.816406 977.457031 705.582031 C 977.539062 705.421875 977.621094 705.253906 977.699219 705.097656 C 977.800781 704.894531 977.898438 704.699219 977.988281 704.507812 C 978.066406 704.34375 978.144531 704.183594 978.21875 704.03125 C 978.296875 703.863281 978.375 703.703125 978.445312 703.546875 C 978.519531 703.390625 978.589844 703.238281 978.65625 703.09375 C 978.71875 702.960938 978.777344 702.832031 978.832031 702.707031 C 978.894531 702.566406 978.953125 702.433594 979.007812 702.304688 C 979.054688 702.203125 979.101562 702.101562 979.140625 702.007812 C 979.191406 701.890625 979.234375 701.785156 979.277344 701.683594 C 979.3125 701.601562 979.347656 701.515625 979.378906 701.445312 C 979.40625 701.378906 979.429688 701.324219 979.449219 701.269531 C 979.484375 701.183594 979.523438 701.09375 979.542969 701.035156 C 979.542969 701.035156 979.546875 701.035156 979.546875 701.035156 C 998.980469 669.566406 984.199219 651.574219 983.554688 650.824219 L 981.824219 648.792969 L 960.070312 694.355469 L 929.964844 718.082031 L 895.570312 721.910156 L 840.804688 728 C 840.804688 728 840.804688 727.996094 840.804688 727.992188 C 840.246094 725.1875 839.664062 722.382812 839.058594 719.585938 C 838.371094 716.457031 837.675781 713.332031 836.917969 710.222656 C 836.914062 710.21875 836.914062 710.214844 836.914062 710.207031 L 878.671875 701.148438 L 920.621094 692.046875 L 920.625 692.0625 L 922.320312 691.679688 L 924.007812 691.3125 L 923.992188 691.246094 C 923.992188 691.246094 923.996094 691.246094 923.996094 691.246094 C 944.097656 685.96875 955.394531 669.554688 961.007812 658.117188 C 961.011719 658.105469 961.015625 658.097656 961.023438 658.085938 C 961.261719 657.597656 961.488281 657.121094 961.703125 656.652344 C 961.738281 656.582031 961.773438 656.507812 961.804688 656.4375 C 962 656.019531 962.179688 655.617188 962.359375 655.21875 C 962.410156 655.101562 962.464844 654.984375 962.511719 654.871094 C 962.667969 654.515625 962.8125 654.175781 962.953125 653.839844 C 963.019531 653.691406 963.082031 653.539062 963.144531 653.390625 C 963.269531 653.09375 963.386719 652.804688 963.5 652.519531 C 963.566406 652.355469 963.632812 652.191406 963.695312 652.03125 C 963.792969 651.777344 963.890625 651.535156 963.980469 651.292969 C 964.046875 651.117188 964.113281 650.941406 964.175781 650.773438 C 964.253906 650.566406 964.328125 650.371094 964.398438 650.175781 C 964.460938 650 964.527344 649.820312 964.585938 649.652344 C 964.644531 649.488281 964.703125 649.328125 964.753906 649.171875 C 964.8125 649 964.871094 648.835938 964.921875 648.679688 C 964.96875 648.546875 965.011719 648.414062 965.054688 648.289062 C 965.101562 648.140625 965.148438 648.003906 965.191406 647.875 C 965.226562 647.761719 965.261719 647.648438 965.292969 647.546875 C 965.328125 647.4375 965.359375 647.332031 965.390625 647.238281 C 965.417969 647.140625 965.449219 647.042969 965.472656 646.964844 C 965.492188 646.902344 965.507812 646.847656 965.523438 646.792969 C 965.550781 646.703125 965.578125 646.609375 965.59375 646.550781 C 981.191406 614.289062 966.144531 597.914062 964.539062 596.300781 C 964.488281 596.25 964.449219 596.210938 964.429688 596.191406 L 962.496094 594.347656 L 945.539062 641.898438 L 918.023438 668.597656 L 877.640625 677.359375 L 831.351562 687.402344 L 828.984375 677.703125 L 828.390625 675.269531 L 863.722656 636.863281 L 896.566406 601.15625 C 905.289062 598.652344 913.574219 595.113281 921.28125 590.679688 C 921.332031 590.648438 921.382812 590.621094 921.433594 590.59375 C 927.722656 586.964844 933.625 582.738281 939.066406 577.996094 C 939.230469 577.851562 939.398438 577.710938 939.5625 577.566406 C 940.5 576.738281 941.421875 575.894531 942.332031 575.039062 C 942.578125 574.804688 942.824219 574.570312 943.070312 574.335938 C 943.949219 573.488281 944.820312 572.636719 945.671875 571.761719 C 945.878906 571.550781 946.082031 571.332031 946.285156 571.117188 C 948.953125 568.34375 951.476562 565.425781 953.851562 562.390625 C 954.117188 562.046875 954.394531 561.710938 954.65625 561.363281 C 955.273438 560.558594 955.867188 559.734375 956.460938 558.910156 C 956.828125 558.398438 957.199219 557.882812 957.558594 557.367188 C 958.101562 556.582031 958.636719 555.792969 959.160156 554.996094 C 959.546875 554.40625 959.925781 553.8125 960.300781 553.21875 C 960.789062 552.449219 961.273438 551.675781 961.738281 550.894531 C 962.144531 550.214844 962.53125 549.527344 962.921875 548.835938 C 963.339844 548.109375 963.761719 547.386719 964.160156 546.648438 C 964.890625 545.296875 965.589844 543.929688 966.265625 542.546875 C 966.578125 541.902344 966.867188 541.25 967.167969 540.601562 C 967.570312 539.730469 967.972656 538.859375 968.355469 537.976562 C 968.652344 537.292969 968.933594 536.601562 969.214844 535.910156 C 969.574219 535.03125 969.921875 534.152344 970.257812 533.261719 C 970.519531 532.578125 970.773438 531.890625 971.019531 531.199219 C 971.359375 530.25 971.679688 529.292969 971.992188 528.328125 C 972.199219 527.691406 972.414062 527.058594 972.609375 526.417969 C 972.988281 525.183594 973.335938 523.9375 973.671875 522.6875 C 973.773438 522.308594 973.890625 521.933594 973.988281 521.550781 C 974.402344 519.929688 974.777344 518.292969 975.121094 516.644531 C 975.234375 516.117188 975.324219 515.582031 975.425781 515.054688 C 975.652344 513.890625 975.867188 512.722656 976.054688 511.546875 C 976.15625 510.914062 976.242188 510.28125 976.335938 509.648438 C 976.492188 508.539062 976.636719 507.425781 976.761719 506.308594 C 976.832031 505.667969 976.902344 505.023438 976.964844 504.378906 C 977.074219 503.191406 977.160156 502 977.234375 500.800781 C 977.269531 500.238281 977.316406 499.679688 977.34375 499.113281 C 977.425781 497.355469 977.476562 495.589844 977.476562 493.8125 C 977.476562 469.640625 968.164062 446.183594 950.539062 425.972656 C 934.226562 407.265625 912.285156 393.238281 888.75 386.480469 L 886.539062 385.84375 L 886.539062 455.984375 C 886.539062 466.84375 878.152344 475.785156 867.511719 476.667969 L 867.511719 382.117188 L 865.78125 382.117188 C 848.324219 382.117188 834.121094 396.320312 834.121094 413.777344 L 834.121094 603.6875 L 814.804688 624.6875 C 814.804688 624.6875 814.800781 624.6875 814.800781 624.6875 C 813.390625 621.539062 811.757812 618.515625 809.921875 615.644531 C 809.921875 615.640625 809.917969 615.636719 809.914062 615.632812 C 808.101562 612.792969 806.089844 610.09375 803.902344 607.558594 C 803.859375 607.507812 803.816406 607.457031 803.769531 607.40625 C 801.625 604.933594 799.308594 602.621094 796.84375 600.472656 C 796.734375 600.382812 796.628906 600.289062 796.523438 600.195312 C 794.09375 598.105469 791.515625 596.1875 788.8125 594.445312 C 788.648438 594.339844 788.488281 594.234375 788.324219 594.132812 C 785.636719 592.429688 782.824219 590.914062 779.902344 589.582031 C 779.707031 589.492188 779.507812 589.398438 779.308594 589.3125 C 778.335938 588.878906 777.351562 588.464844 776.355469 588.074219 L 776.355469 458.515625 C 776.355469 392.125 830.367188 338.113281 896.757812 338.113281 L 896.757812 334.648438 C 828.457031 334.648438 772.890625 390.214844 772.890625 458.515625 L 772.890625 586.785156 C 769.628906 585.707031 766.257812 584.855469 762.800781 584.253906 L 750.671875 551.085938 L 738.546875 584.253906 C 737.070312 584.507812 735.621094 584.832031 734.183594 585.179688 C 733.796875 585.273438 733.40625 585.355469 733.023438 585.457031 C 731.890625 585.75 730.78125 586.085938 729.671875 586.429688 C 728.976562 586.648438 728.28125 586.871094 727.59375 587.105469 L 727.59375 458.515625 C 727.59375 390.214844 672.027344 334.648438 603.726562 334.648438 L 603.726562 338.113281 C 670.117188 338.113281 724.128906 392.125 724.128906 458.515625 L 724.128906 588.394531 C 723.566406 588.621094 723.019531 588.875 722.46875 589.113281 C 721.683594 589.457031 720.90625 589.808594 720.136719 590.179688 C 719.539062 590.464844 718.945312 590.753906 718.359375 591.054688 C 717.296875 591.601562 716.25 592.171875 715.21875 592.773438 C 714.59375 593.136719 713.980469 593.523438 713.363281 593.910156 C 712.746094 594.296875 712.132812 594.691406 711.523438 595.097656 C 710.902344 595.511719 710.285156 595.929688 709.675781 596.363281 C 709.054688 596.808594 708.453125 597.273438 707.847656 597.738281 C 706.871094 598.488281 705.914062 599.261719 704.980469 600.058594 C 704.59375 600.390625 704.210938 600.722656 703.832031 601.058594 C 701.617188 603.039062 699.523438 605.160156 697.570312 607.410156 C 697.410156 607.597656 697.246094 607.789062 697.082031 607.976562 C 695.015625 610.417969 693.105469 613 691.378906 615.714844 C 691.351562 615.757812 691.324219 615.796875 691.300781 615.835938 C 689.515625 618.652344 687.925781 621.609375 686.542969 624.6875 L 679.367188 616.886719 L 667.222656 603.6875 L 667.222656 413.777344 C 667.222656 396.320312 653.023438 382.117188 635.566406 382.117188 L 633.832031 382.117188 L 633.832031 476.667969 C 623.195312 475.785156 614.808594 466.84375 614.808594 455.980469 L 614.808594 385.84375 L 612.597656 386.476562 C 589.0625 393.238281 567.117188 407.265625 550.804688 425.972656 C 533.183594 446.183594 523.867188 469.640625 523.867188 493.8125 C 523.867188 495.589844 523.917969 497.355469 524.003906 499.113281 C 524.027344 499.675781 524.074219 500.238281 524.109375 500.800781 C 524.183594 501.996094 524.269531 503.191406 524.382812 504.378906 C 524.441406 505.023438 524.511719 505.667969 524.585938 506.3125 C 524.710938 507.425781 524.851562 508.539062 525.011719 509.644531 C 525.101562 510.277344 525.191406 510.914062 525.292969 511.546875 C 525.480469 512.71875 525.695312 513.886719 525.917969 515.046875 C 526.019531 515.578125 526.113281 516.117188 526.222656 516.648438 C 526.566406 518.292969 526.941406 519.929688 527.359375 521.550781 C 527.457031 521.929688 527.570312 522.304688 527.671875 522.679688 C 528.007812 523.933594 528.355469 525.183594 528.734375 526.417969 C 528.929688 527.058594 529.144531 527.691406 529.351562 528.328125 C 529.664062 529.289062 529.988281 530.25 530.324219 531.199219 C 530.570312 531.890625 530.824219 532.578125 531.085938 533.261719 C 531.421875 534.148438 531.773438 535.03125 532.128906 535.910156 C 532.414062 536.601562 532.695312 537.292969 532.992188 537.976562 C 533.371094 538.859375 533.773438 539.726562 534.175781 540.59375 C 534.476562 541.246094 534.765625 541.902344 535.082031 542.546875 C 535.753906 543.929688 536.457031 545.296875 537.183594 546.648438 C 537.582031 547.386719 538.007812 548.105469 538.421875 548.835938 C 538.8125 549.523438 539.199219 550.214844 539.605469 550.894531 C 540.074219 551.675781 540.558594 552.449219 541.046875 553.21875 C 541.421875 553.8125 541.796875 554.40625 542.183594 554.996094 C 542.710938 555.792969 543.242188 556.582031 543.789062 557.367188 C 544.148438 557.882812 544.515625 558.394531 544.882812 558.90625 C 545.480469 559.734375 546.074219 560.554688 546.691406 561.363281 C 546.953125 561.710938 547.226562 562.046875 547.496094 562.390625 C 549.867188 565.425781 552.386719 568.339844 555.054688 571.113281 C 555.261719 571.328125 555.464844 571.550781 555.675781 571.765625 C 556.527344 572.636719 557.398438 573.488281 558.277344 574.332031 C 558.519531 574.570312 558.765625 574.804688 559.015625 575.039062 C 559.925781 575.894531 560.847656 576.738281 561.785156 577.566406 C 561.949219 577.710938 562.113281 577.851562 562.28125 577.996094 C 567.722656 582.734375 573.621094 586.960938 579.910156 590.589844 C 579.960938 590.621094 580.011719 590.652344 580.066406 590.679688 C 587.773438 595.113281 596.058594 598.652344 604.777344 601.15625 L 672.953125 675.269531 L 669.996094 687.398438 L 611.191406 674.640625 L 583.324219 668.59375 L 575.34375 660.855469 L 555.808594 641.898438 L 538.851562 594.347656 L 536.917969 596.191406 C 536.894531 596.210938 536.859375 596.25 536.804688 596.300781 C 535.203125 597.914062 520.152344 614.289062 535.753906 646.546875 C 535.769531 646.609375 535.796875 646.703125 535.824219 646.792969 C 535.839844 646.847656 535.855469 646.902344 535.875 646.964844 C 535.898438 647.042969 535.925781 647.140625 535.957031 647.234375 C 535.984375 647.332031 536.019531 647.4375 536.054688 647.550781 C 536.085938 647.648438 536.121094 647.757812 536.15625 647.867188 C 536.199219 648 536.242188 648.144531 536.292969 648.292969 C 536.332031 648.414062 536.375 648.542969 536.421875 648.675781 C 536.476562 648.835938 536.53125 649.003906 536.59375 649.175781 C 536.644531 649.328125 536.699219 649.484375 536.757812 649.648438 C 536.820312 649.820312 536.882812 650 536.949219 650.183594 C 537.019531 650.371094 537.089844 650.566406 537.167969 650.769531 C 537.230469 650.941406 537.300781 651.117188 537.367188 651.296875 C 537.457031 651.535156 537.550781 651.777344 537.652344 652.03125 C 537.714844 652.1875 537.78125 652.351562 537.84375 652.515625 C 537.960938 652.800781 538.078125 653.09375 538.203125 653.394531 C 538.261719 653.539062 538.328125 653.691406 538.390625 653.839844 C 538.53125 654.175781 538.675781 654.515625 538.832031 654.867188 C 538.882812 654.984375 538.9375 655.105469 538.992188 655.222656 C 539.167969 655.621094 539.347656 656.023438 539.539062 656.4375 C 539.574219 656.511719 539.609375 656.585938 539.644531 656.664062 C 539.863281 657.125 540.085938 657.597656 540.320312 658.082031 C 540.332031 658.097656 540.339844 658.117188 540.347656 658.132812 C 545.960938 669.570312 557.257812 685.972656 577.351562 691.246094 L 577.339844 691.3125 L 579.007812 691.675781 C 579.011719 691.675781 579.015625 691.675781 579.015625 691.675781 L 580.722656 692.0625 L 580.726562 692.046875 L 664.433594 710.207031 C 664.429688 710.222656 664.425781 710.234375 664.425781 710.246094 C 663.667969 713.347656 662.972656 716.464844 662.289062 719.582031 C 661.683594 722.382812 661.101562 725.1875 660.542969 727.996094 C 660.542969 727.996094 660.542969 728 660.539062 728 L 594.164062 720.617188 L 571.382812 718.082031 L 541.273438 694.351562 L 519.523438 648.792969 L 517.789062 650.824219 C 517.761719 650.859375 517.695312 650.9375 517.617188 651.039062 C 515.890625 653.21875 503.230469 670.964844 521.796875 701.03125 C 521.820312 701.089844 521.855469 701.175781 521.890625 701.261719 C 521.910156 701.316406 521.933594 701.371094 521.960938 701.433594 C 521.992188 701.507812 522.03125 701.597656 522.066406 701.6875 C 522.109375 701.78125 522.152344 701.886719 522.199219 701.996094 C 522.242188 702.089844 522.285156 702.195312 522.332031 702.304688 C 522.386719 702.429688 522.449219 702.566406 522.511719 702.707031 C 522.566406 702.824219 522.621094 702.949219 522.679688 703.078125 C 522.75 703.226562 522.824219 703.386719 522.898438 703.546875 C 522.96875 703.699219 523.039062 703.851562 523.117188 704.015625 C 523.191406 704.171875 523.273438 704.335938 523.351562 704.503906 C 523.445312 704.695312 523.539062 704.886719 523.640625 705.089844 C 523.71875 705.246094 523.800781 705.410156 523.882812 705.570312 C 524 705.804688 524.117188 706.039062 524.246094 706.28125 C 524.320312 706.429688 524.402344 706.585938 524.484375 706.738281 C 524.628906 707.015625 524.777344 707.292969 524.9375 707.585938 C 525.007812 707.71875 525.082031 707.851562 525.15625 707.984375 C 525.335938 708.3125 525.515625 708.640625 525.710938 708.984375 C 525.769531 709.085938 525.832031 709.195312 525.894531 709.300781 C 526.113281 709.683594 526.335938 710.070312 526.574219 710.46875 C 526.609375 710.53125 526.648438 710.59375 526.6875 710.65625 C 526.953125 711.105469 527.230469 711.558594 527.519531 712.023438 C 527.523438 712.027344 527.523438 712.027344 527.523438 712.03125 C 534.273438 722.835938 547.207031 738.035156 567.769531 741.226562 L 567.761719 741.292969 L 569.523438 741.492188 L 571.203125 741.691406 L 571.207031 741.675781 L 656.585938 751.175781 C 655.4375 759.214844 654.515625 767.289062 653.820312 775.386719 C 653.820312 775.386719 653.820312 775.386719 653.820312 775.390625 L 569.925781 766.730469 L 569.925781 766.714844 L 568.1875 766.550781 C 568.183594 766.550781 568.179688 766.550781 568.175781 766.550781 L 566.476562 766.375 L 566.472656 766.441406 C 566.46875 766.441406 566.46875 766.441406 566.46875 766.441406 C 545.71875 765.199219 529.871094 777.289062 520.980469 786.414062 C 520.972656 786.421875 520.964844 786.425781 520.960938 786.433594 C 520.582031 786.820312 520.21875 787.203125 519.867188 787.578125 C 519.8125 787.636719 519.753906 787.699219 519.699219 787.757812 C 519.386719 788.09375 519.085938 788.421875 518.792969 788.746094 C 518.710938 788.839844 518.625 788.933594 518.542969 789.023438 C 518.285156 789.3125 518.039062 789.59375 517.796875 789.871094 C 517.691406 789.992188 517.585938 790.113281 517.484375 790.234375 C 517.273438 790.476562 517.070312 790.714844 516.875 790.949219 C 516.761719 791.085938 516.644531 791.222656 516.535156 791.355469 C 516.359375 791.570312 516.191406 791.773438 516.027344 791.976562 C 515.914062 792.117188 515.800781 792.257812 515.691406 792.390625 C 515.550781 792.570312 515.414062 792.742188 515.28125 792.914062 C 515.167969 793.054688 515.058594 793.199219 514.953125 793.332031 C 514.84375 793.472656 514.738281 793.609375 514.636719 793.746094 C 514.53125 793.886719 514.425781 794.023438 514.328125 794.152344 C 514.238281 794.273438 514.152344 794.390625 514.070312 794.5 C 513.984375 794.617188 513.902344 794.726562 513.828125 794.832031 C 513.753906 794.933594 513.683594 795.03125 513.617188 795.125 C 513.554688 795.214844 513.492188 795.300781 513.4375 795.378906 C 513.375 795.464844 513.316406 795.550781 513.265625 795.621094 C 513.230469 795.671875 513.199219 795.71875 513.167969 795.765625 C 513.113281 795.839844 513.058594 795.921875 513.023438 795.972656 C 487.359375 822.605469 497.992188 843.324219 498.460938 844.191406 L 499.722656 846.546875 L 530.640625 806.632812 L 565.09375 789.828125 L 652.109375 798.808594 C 652.113281 800.632812 652.175781 802.445312 652.277344 804.25 C 652.191406 808.578125 652.160156 812.90625 652.203125 817.234375 C 652.203125 817.238281 652.203125 817.246094 652.203125 817.25 L 568.703125 817.25 L 568.703125 817.234375 L 566.957031 817.25 L 565.238281 817.25 L 565.238281 817.316406 C 544.464844 818.214844 529.9375 831.875 522.03125 841.863281 C 522.023438 841.871094 522.019531 841.878906 522.011719 841.882812 C 521.675781 842.308594 521.355469 842.726562 521.042969 843.136719 C 520.996094 843.199219 520.945312 843.265625 520.894531 843.328125 C 520.621094 843.691406 520.359375 844.046875 520.101562 844.398438 C 520.027344 844.5 519.949219 844.605469 519.875 844.707031 C 519.648438 845.023438 519.433594 845.324219 519.222656 845.625 C 519.132812 845.753906 519.035156 845.886719 518.949219 846.015625 C 518.761719 846.28125 518.585938 846.539062 518.414062 846.796875 C 518.316406 846.941406 518.214844 847.089844 518.117188 847.234375 C 517.96875 847.457031 517.824219 847.675781 517.683594 847.890625 C 517.582031 848.046875 517.480469 848.203125 517.382812 848.351562 C 517.265625 848.539062 517.148438 848.71875 517.039062 848.894531 C 516.9375 849.054688 516.839844 849.210938 516.75 849.359375 C 516.652344 849.511719 516.566406 849.65625 516.476562 849.800781 C 516.382812 849.953125 516.292969 850.105469 516.207031 850.25 C 516.136719 850.363281 516.070312 850.476562 516.007812 850.582031 C 515.925781 850.722656 515.84375 850.859375 515.773438 850.984375 C 515.71875 851.082031 515.664062 851.175781 515.613281 851.261719 C 515.554688 851.367188 515.496094 851.46875 515.445312 851.558594 C 515.398438 851.640625 515.351562 851.726562 515.3125 851.796875 C 515.28125 851.855469 515.25 851.910156 515.222656 851.960938 C 515.179688 852.042969 515.132812 852.128906 515.105469 852.179688 C 493.652344 879.59375 503.640625 898.488281 505.351562 901.296875 C 505.460938 901.472656 505.539062 901.589844 505.570312 901.640625 L 507.066406 903.851562 L 533.722656 860.976562 L 556.800781 846.613281 L 566.269531 840.71875 L 653.074219 840.71875 C 653.324219 844.585938 653.625 848.449219 653.972656 852.308594 C 653.980469 852.398438 653.988281 852.488281 653.996094 852.582031 C 654.351562 856.480469 654.761719 860.375 655.226562 864.257812 C 655.226562 864.285156 655.230469 864.3125 655.234375 864.335938 C 656.167969 872.171875 657.3125 879.976562 658.671875 887.742188 C 658.671875 887.746094 658.671875 887.746094 658.671875 887.75 L 658.558594 887.792969 C 658.625 887.96875 658.699219 888.136719 658.769531 888.3125 C 659.050781 889.917969 659.351562 891.519531 659.648438 893.125 C 660.230469 896.203125 660.816406 899.28125 661.460938 902.347656 L 687.085938 1033.03125 C 687.289062 1034.0625 687.515625 1035.078125 687.765625 1036.085938 C 687.8125 1036.277344 687.867188 1036.464844 687.917969 1036.652344 C 688.136719 1037.503906 688.363281 1038.347656 688.617188 1039.179688 C 688.65625 1039.304688 688.695312 1039.429688 688.734375 1039.554688 C 689.015625 1040.46875 689.3125 1041.375 689.632812 1042.273438 C 689.648438 1042.316406 689.667969 1042.359375 689.683594 1042.40625 C 690.03125 1043.375 690.402344 1044.335938 690.792969 1045.285156 C 689.667969 1045.484375 688.523438 1045.714844 687.363281 1045.976562 C 687.308594 1045.992188 687.253906 1046.003906 687.199219 1046.015625 C 683.996094 1046.75 680.671875 1047.75 677.285156 1048.984375 C 676.90625 1049.121094 676.535156 1049.246094 676.15625 1049.386719 C 675.386719 1049.679688 674.609375 1050.003906 673.832031 1050.320312 C 673.121094 1050.613281 672.410156 1050.90625 671.691406 1051.222656 C 671.03125 1051.507812 670.371094 1051.808594 669.707031 1052.113281 C 668.800781 1052.53125 667.894531 1052.972656 666.988281 1053.425781 C 666.460938 1053.6875 665.9375 1053.941406 665.410156 1054.214844 C 663.957031 1054.96875 662.496094 1055.753906 661.039062 1056.597656 C 635.335938 1071.4375 621.03125 1093.160156 628.472656 1106.050781 C 631.859375 1111.917969 639.078125 1114.796875 648.367188 1114.796875 C 649.585938 1114.796875 650.855469 1114.726562 652.144531 1114.628906 C 652.4375 1114.605469 652.722656 1114.589844 653.015625 1114.558594 C 654.136719 1114.453125 655.289062 1114.300781 656.453125 1114.121094 C 657.023438 1114.03125 657.59375 1113.9375 658.171875 1113.832031 C 658.855469 1113.707031 659.550781 1113.558594 660.246094 1113.410156 C 661.433594 1113.15625 662.628906 1112.875 663.84375 1112.550781 C 664.066406 1112.492188 664.289062 1112.429688 664.515625 1112.367188 C 666.277344 1111.882812 668.070312 1111.328125 669.882812 1110.699219 C 669.882812 1110.703125 669.882812 1110.703125 669.882812 1110.703125 C 669.527344 1111.761719 669.214844 1112.804688 668.921875 1113.84375 C 668.792969 1114.296875 668.671875 1114.75 668.558594 1115.199219 C 668.300781 1116.195312 668.066406 1117.1875 667.875 1118.15625 C 667.800781 1118.53125 667.742188 1118.898438 667.675781 1119.269531 C 667.535156 1120.074219 667.417969 1120.867188 667.320312 1121.648438 C 667.277344 1122.015625 667.226562 1122.386719 667.191406 1122.746094 C 667.097656 1123.722656 667.039062 1124.675781 667.019531 1125.609375 C 667.011719 1125.925781 667.015625 1126.238281 667.019531 1126.550781 C 667.023438 1127.378906 667.050781 1128.191406 667.117188 1128.980469 C 667.132812 1129.160156 667.136719 1129.347656 667.152344 1129.523438 C 667.246094 1130.441406 667.398438 1131.316406 667.578125 1132.171875 C 667.628906 1132.410156 667.679688 1132.652344 667.738281 1132.886719 C 667.945312 1133.730469 668.183594 1134.550781 668.480469 1135.324219 C 668.53125 1135.464844 668.597656 1135.597656 668.65625 1135.738281 C 668.941406 1136.4375 669.269531 1137.109375 669.632812 1137.746094 C 669.707031 1137.878906 669.777344 1138.023438 669.859375 1138.15625 C 670.28125 1138.84375 670.753906 1139.492188 671.269531 1140.09375 C 671.382812 1140.226562 671.503906 1140.351562 671.621094 1140.480469 C 672.175781 1141.085938 672.765625 1141.660156 673.425781 1142.167969 C 676.175781 1144.273438 679.550781 1145.273438 683.335938 1145.273438 C 684.097656 1145.273438 684.875 1145.230469 685.667969 1145.152344 C 685.941406 1145.125 686.226562 1145.066406 686.503906 1145.03125 C 687.027344 1144.960938 687.546875 1144.894531 688.082031 1144.792969 C 688.425781 1144.726562 688.78125 1144.632812 689.132812 1144.550781 C 689.609375 1144.441406 690.085938 1144.339844 690.570312 1144.203125 C 690.960938 1144.09375 691.359375 1143.960938 691.753906 1143.835938 C 692.210938 1143.695312 692.664062 1143.554688 693.125 1143.390625 C 693.550781 1143.238281 693.976562 1143.066406 694.40625 1142.898438 C 694.847656 1142.722656 695.289062 1142.550781 695.734375 1142.359375 C 696.1875 1142.164062 696.644531 1141.949219 697.101562 1141.734375 C 697.527344 1141.535156 697.953125 1141.335938 698.382812 1141.121094 C 698.863281 1140.878906 699.34375 1140.617188 699.828125 1140.359375 C 700.238281 1140.136719 700.652344 1139.910156 701.0625 1139.671875 C 701.566406 1139.382812 702.074219 1139.082031 702.578125 1138.773438 C 702.972656 1138.53125 703.367188 1138.285156 703.765625 1138.03125 C 704.292969 1137.691406 704.820312 1137.339844 705.347656 1136.980469 C 705.722656 1136.722656 706.101562 1136.460938 706.476562 1136.195312 C 707.023438 1135.804688 707.574219 1135.40625 708.125 1134.992188 C 708.476562 1134.726562 708.832031 1134.453125 709.183594 1134.175781 C 709.753906 1133.734375 710.324219 1133.28125 710.894531 1132.8125 C 711.222656 1132.542969 711.550781 1132.261719 711.878906 1131.984375 C 712.472656 1131.484375 713.0625 1130.972656 713.652344 1130.445312 C 713.953125 1130.179688 714.25 1129.902344 714.546875 1129.628906 C 715.164062 1129.0625 715.777344 1128.492188 716.386719 1127.902344 C 716.652344 1127.644531 716.914062 1127.378906 717.179688 1127.113281 C 717.816406 1126.480469 718.453125 1125.84375 719.085938 1125.183594 C 719.304688 1124.953125 719.519531 1124.714844 719.742188 1124.480469 C 720.410156 1123.765625 721.078125 1123.042969 721.742188 1122.296875 C 721.890625 1122.128906 722.035156 1121.949219 722.183594 1121.78125 C 722.910156 1120.953125 723.632812 1120.113281 724.34375 1119.246094 C 724.34375 1119.246094 724.34375 1119.246094 724.34375 1119.25 C 724.902344 1128.246094 726.554688 1136.476562 729.03125 1143.414062 C 729.054688 1143.476562 729.074219 1143.539062 729.097656 1143.605469 C 729.296875 1144.15625 729.5 1144.695312 729.710938 1145.230469 C 729.75 1145.332031 729.789062 1145.433594 729.828125 1145.535156 C 730.03125 1146.039062 730.238281 1146.539062 730.445312 1147.027344 C 730.496094 1147.148438 730.546875 1147.265625 730.601562 1147.382812 C 730.808594 1147.855469 731.015625 1148.320312 731.230469 1148.777344 C 731.292969 1148.90625 731.351562 1149.03125 731.414062 1149.15625 C 731.625 1149.601562 731.839844 1150.039062 732.058594 1150.464844 C 732.125 1150.59375 732.195312 1150.722656 732.261719 1150.851562 C 732.484375 1151.269531 732.707031 1151.6875 732.933594 1152.089844 C 733 1152.207031 733.066406 1152.320312 733.132812 1152.433594 C 733.367188 1152.839844 733.601562 1153.246094 733.84375 1153.632812 C 733.902344 1153.726562 733.960938 1153.8125 734.015625 1153.90625 C 735.085938 1155.601562 736.226562 1157.132812 737.425781 1158.484375 C 737.554688 1158.628906 737.679688 1158.777344 737.808594 1158.917969 C 738.011719 1159.140625 738.21875 1159.34375 738.425781 1159.554688 C 738.589844 1159.71875 738.75 1159.886719 738.914062 1160.046875 C 739.109375 1160.234375 739.308594 1160.410156 739.507812 1160.589844 C 739.6875 1160.753906 739.867188 1160.917969 740.050781 1161.074219 C 740.242188 1161.234375 740.4375 1161.390625 740.632812 1161.542969 C 740.824219 1161.699219 741.019531 1161.851562 741.21875 1161.996094 C 741.40625 1162.136719 741.601562 1162.273438 741.792969 1162.40625 C 742 1162.546875 742.207031 1162.683594 742.414062 1162.816406 C 742.601562 1162.933594 742.792969 1163.050781 742.988281 1163.164062 C 743.203125 1163.289062 743.421875 1163.410156 743.636719 1163.523438 C 743.828125 1163.625 744.019531 1163.722656 744.210938 1163.8125 C 744.433594 1163.921875 744.664062 1164.023438 744.890625 1164.121094 C 745.078125 1164.199219 745.265625 1164.28125 745.457031 1164.355469 C 745.695312 1164.445312 745.9375 1164.527344 746.179688 1164.605469 C 746.359375 1164.664062 746.542969 1164.726562 746.726562 1164.78125 C 746.984375 1164.855469 747.246094 1164.914062 747.503906 1164.972656 C 747.675781 1165.011719 747.847656 1165.054688 748.019531 1165.089844 C 748.3125 1165.144531 748.601562 1165.179688 748.894531 1165.21875 C 749.042969 1165.234375 749.191406 1165.261719 749.339844 1165.277344 C 749.78125 1165.320312 750.222656 1165.34375 750.671875 1165.34375 C 751.117188 1165.34375 751.5625 1165.320312 752.003906 1165.277344 C 752.152344 1165.261719 752.300781 1165.234375 752.449219 1165.21875 C 752.742188 1165.179688 753.03125 1165.144531 753.320312 1165.089844 C 753.496094 1165.054688 753.664062 1165.011719 753.835938 1164.972656 C 754.097656 1164.914062 754.359375 1164.855469 754.617188 1164.78125 C 754.800781 1164.726562 754.984375 1164.664062 755.164062 1164.605469 C 755.40625 1164.527344 755.648438 1164.445312 755.886719 1164.355469 C 756.078125 1164.28125 756.265625 1164.199219 756.453125 1164.121094 C 756.679688 1164.023438 756.910156 1163.921875 757.132812 1163.8125 C 757.324219 1163.722656 757.515625 1163.625 757.707031 1163.523438 C 757.921875 1163.40625 758.140625 1163.289062 758.355469 1163.164062 C 758.546875 1163.050781 758.742188 1162.933594 758.933594 1162.8125 C 759.140625 1162.683594 759.34375 1162.546875 759.546875 1162.40625 C 759.742188 1162.273438 759.933594 1162.136719 760.128906 1161.996094 C 760.324219 1161.851562 760.515625 1161.699219 760.710938 1161.546875 C 760.90625 1161.390625 761.101562 1161.234375 761.292969 1161.070312 C 761.476562 1160.917969 761.65625 1160.753906 761.835938 1160.589844 C 762.035156 1160.410156 762.234375 1160.234375 762.429688 1160.042969 C 762.59375 1159.886719 762.753906 1159.71875 762.917969 1159.554688 C 763.125 1159.34375 763.332031 1159.136719 763.535156 1158.917969 C 763.664062 1158.777344 763.792969 1158.625 763.921875 1158.480469 C 765.121094 1157.125 766.261719 1155.59375 767.332031 1153.894531 C 767.386719 1153.808594 767.445312 1153.722656 767.5 1153.636719 C 767.738281 1153.246094 767.972656 1152.847656 768.207031 1152.441406 C 768.273438 1152.324219 768.34375 1152.207031 768.414062 1152.085938 C 768.640625 1151.679688 768.863281 1151.265625 769.082031 1150.847656 C 769.148438 1150.71875 769.21875 1150.59375 769.285156 1150.464844 C 769.503906 1150.035156 769.722656 1149.597656 769.933594 1149.152344 C 769.992188 1149.027344 770.054688 1148.90625 770.113281 1148.78125 C 770.328125 1148.320312 770.539062 1147.855469 770.746094 1147.378906 C 770.796875 1147.265625 770.847656 1147.148438 770.894531 1147.03125 C 771.109375 1146.539062 771.316406 1146.035156 771.515625 1145.527344 C 771.554688 1145.429688 771.59375 1145.332031 771.632812 1145.238281 C 771.839844 1144.699219 772.046875 1144.15625 772.246094 1143.601562 C 772.269531 1143.539062 772.289062 1143.476562 772.3125 1143.414062 C 774.789062 1136.476562 776.441406 1128.246094 777 1119.25 C 777 1119.246094 777 1119.246094 777 1119.242188 C 777.71875 1120.117188 778.445312 1120.964844 779.175781 1121.800781 C 779.316406 1121.960938 779.457031 1122.132812 779.601562 1122.292969 C 780.265625 1123.042969 780.9375 1123.769531 781.613281 1124.488281 C 781.828125 1124.71875 782.042969 1124.953125 782.257812 1125.179688 C 782.890625 1125.84375 783.53125 1126.484375 784.171875 1127.121094 C 784.433594 1127.378906 784.695312 1127.644531 784.957031 1127.898438 C 785.570312 1128.492188 786.183594 1129.066406 786.800781 1129.628906 C 787.097656 1129.902344 787.390625 1130.175781 787.6875 1130.441406 C 788.28125 1130.972656 788.875 1131.484375 789.472656 1131.988281 C 789.796875 1132.265625 790.121094 1132.539062 790.445312 1132.808594 C 791.015625 1133.277344 791.589844 1133.734375 792.164062 1134.179688 C 792.515625 1134.453125 792.867188 1134.722656 793.214844 1134.988281 C 793.769531 1135.402344 794.320312 1135.804688 794.875 1136.199219 C 795.246094 1136.460938 795.617188 1136.722656 795.992188 1136.976562 C 796.523438 1137.339844 797.050781 1137.691406 797.582031 1138.03125 C 797.976562 1138.285156 798.367188 1138.527344 798.761719 1138.769531 C 799.269531 1139.078125 799.777344 1139.382812 800.28125 1139.671875 C 800.695312 1139.910156 801.105469 1140.132812 801.515625 1140.355469 C 802 1140.617188 802.480469 1140.875 802.960938 1141.117188 C 803.390625 1141.335938 803.816406 1141.535156 804.242188 1141.734375 C 804.699219 1141.949219 805.15625 1142.164062 805.609375 1142.359375 C 806.054688 1142.550781 806.496094 1142.722656 806.9375 1142.894531 C 807.363281 1143.066406 807.792969 1143.238281 808.21875 1143.390625 C 808.679688 1143.554688 809.132812 1143.691406 809.589844 1143.835938 C 809.984375 1143.960938 810.382812 1144.09375 810.773438 1144.203125 C 811.257812 1144.335938 811.730469 1144.441406 812.210938 1144.550781 C 812.558594 1144.628906 812.914062 1144.722656 813.261719 1144.792969 C 813.796875 1144.894531 814.316406 1144.960938 814.839844 1145.03125 C 815.117188 1145.066406 815.402344 1145.121094 815.675781 1145.148438 C 816.46875 1145.230469 817.246094 1145.273438 818.003906 1145.273438 C 821.792969 1145.273438 825.167969 1144.273438 827.917969 1142.164062 C 828.578125 1141.660156 829.167969 1141.085938 829.722656 1140.480469 C 829.839844 1140.351562 829.960938 1140.226562 830.074219 1140.09375 C 830.589844 1139.488281 831.0625 1138.84375 831.484375 1138.152344 C 831.566406 1138.019531 831.636719 1137.878906 831.710938 1137.746094 C 832.074219 1137.105469 832.402344 1136.4375 832.6875 1135.734375 C 832.746094 1135.597656 832.8125 1135.464844 832.867188 1135.320312 C 833.160156 1134.546875 833.402344 1133.730469 833.605469 1132.882812 C 833.664062 1132.648438 833.714844 1132.410156 833.765625 1132.171875 C 833.945312 1131.316406 834.097656 1130.441406 834.191406 1129.523438 C 834.207031 1129.347656 834.210938 1129.160156 834.226562 1128.980469 C 834.292969 1128.191406 834.324219 1127.378906 834.328125 1126.550781 C 834.328125 1126.234375 834.332031 1125.925781 834.324219 1125.605469 C 834.304688 1124.671875 834.246094 1123.71875 834.152344 1122.742188 C 834.117188 1122.382812 834.070312 1122.015625 834.023438 1121.652344 C 833.929688 1120.867188 833.808594 1120.070312 833.667969 1119.265625 C 833.601562 1118.898438 833.546875 1118.539062 833.472656 1118.167969 C 833.28125 1117.191406 833.042969 1116.199219 832.785156 1115.195312 C 832.671875 1114.746094 832.550781 1114.296875 832.421875 1113.84375 C 832.132812 1112.804688 831.816406 1111.757812 831.460938 1110.695312 C 834.546875 1111.757812 837.601562 1112.621094 840.582031 1113.277344 C 840.625 1113.285156 840.667969 1113.296875 840.707031 1113.308594 C 842.046875 1113.597656 843.367188 1113.832031 844.671875 1114.035156 C 844.84375 1114.0625 845.023438 1114.105469 845.195312 1114.128906 C 846.648438 1114.347656 848.082031 1114.507812 849.488281 1114.609375 C 850.71875 1114.699219 851.910156 1114.742188 853.066406 1114.742188 C 862.640625 1114.742188 869.605469 1111.710938 872.871094 1106.050781 C 880.3125 1093.160156 866.007812 1071.4375 840.304688 1056.59375 C 838.925781 1055.800781 837.535156 1055.046875 836.144531 1054.324219 C 835.617188 1054.050781 835.089844 1053.796875 834.566406 1053.535156 C 833.722656 1053.113281 832.875 1052.699219 832.03125 1052.300781 C 831.34375 1051.984375 830.660156 1051.679688 829.976562 1051.378906 C 829.328125 1051.09375 828.679688 1050.816406 828.03125 1050.550781 C 827.21875 1050.214844 826.402344 1049.878906 825.59375 1049.570312 C 825.1875 1049.414062 824.78125 1049.273438 824.375 1049.121094 C 819.65625 1047.398438 814.996094 1046.109375 810.53125 1045.335938 C 810.527344 1045.335938 810.527344 1045.335938 810.527344 1045.335938 C 810.921875 1044.386719 811.292969 1043.421875 811.644531 1042.449219 C 811.664062 1042.402344 811.679688 1042.351562 811.699219 1042.300781 C 812.019531 1041.40625 812.316406 1040.5 812.597656 1039.589844 C 812.640625 1039.457031 812.683594 1039.328125 812.722656 1039.195312 C 812.972656 1038.359375 813.203125 1037.515625 813.421875 1036.664062 C 813.472656 1036.476562 813.527344 1036.285156 813.574219 1036.09375 C 813.824219 1035.082031 814.054688 1034.0625 814.257812 1033.03125 L 839.878906 902.371094 C 840.523438 899.3125 841.109375 896.238281 841.6875 893.164062 C 841.988281 891.535156 842.292969 889.90625 842.582031 888.273438 C 842.582031 888.269531 842.582031 888.269531 842.582031 888.269531 C 842.878906 887.503906 843.183594 886.746094 843.460938 885.96875 L 842.996094 885.800781 C 843.628906 882.074219 844.214844 878.339844 844.753906 874.597656 C 844.753906 874.59375 844.753906 874.589844 844.753906 874.589844 C 845.285156 870.886719 845.769531 867.175781 846.207031 863.460938 C 846.226562 863.285156 846.246094 863.105469 846.265625 862.929688 C 846.679688 859.363281 847.050781 855.792969 847.375 852.21875 C 847.40625 851.886719 847.429688 851.554688 847.457031 851.222656 C 847.765625 847.726562 848.042969 844.222656 848.265625 840.71875 L 935.074219 840.71875 L 967.621094 860.972656 L 994.277344 903.851562 L 995.773438 901.636719 C 996.328125 900.820312 1009.035156 881.304688 986.234375 852.171875 C 986.203125 852.117188 986.160156 852.035156 986.117188 851.957031 C 986.089844 851.902344 986.058594 851.847656 986.023438 851.785156 C 985.984375 851.714844 985.9375 851.628906 985.890625 851.546875 C 985.839844 851.457031 985.785156 851.359375 985.726562 851.257812 C 985.675781 851.164062 985.617188 851.0625 985.558594 850.960938 C 985.488281 850.84375 985.414062 850.71875 985.335938 850.585938 C 985.269531 850.46875 985.195312 850.34375 985.117188 850.21875 C 985.039062 850.085938 984.953125 849.945312 984.867188 849.800781 C 984.773438 849.648438 984.679688 849.492188 984.578125 849.332031 C 984.488281 849.191406 984.398438 849.042969 984.300781 848.890625 C 984.1875 848.707031 984.066406 848.519531 983.941406 848.324219 C 983.847656 848.179688 983.753906 848.035156 983.65625 847.886719 C 983.507812 847.660156 983.359375 847.433594 983.203125 847.195312 C 983.113281 847.066406 983.019531 846.929688 982.929688 846.792969 C 982.75 846.527344 982.566406 846.261719 982.371094 845.980469 C 982.289062 845.863281 982.199219 845.738281 982.113281 845.613281 C 981.898438 845.304688 981.675781 844.992188 981.441406 844.671875 C 981.375 844.578125 981.304688 844.480469 981.234375 844.386719 C 980.972656 844.03125 980.703125 843.667969 980.421875 843.296875 C 980.375 843.230469 980.324219 843.167969 980.273438 843.101562 C 979.964844 842.691406 979.644531 842.277344 979.308594 841.851562 C 979.296875 841.835938 979.28125 841.820312 979.269531 841.808594 C 971.355469 831.824219 956.84375 818.210938 936.105469 817.316406 L 936.105469 817.246094 L 934.386719 817.246094 L 932.640625 817.234375 L 932.640625 817.246094 L 849.140625 817.246094 C 849.140625 817.246094 849.140625 817.242188 849.140625 817.238281 C 849.183594 812.910156 849.152344 808.582031 849.066406 804.253906 C 849.167969 802.449219 849.230469 800.632812 849.234375 798.804688 L 909.351562 792.601562 L 936.253906 789.824219 L 970.707031 806.632812 L 1001.621094 846.546875 L 1002.886719 844.191406 C 1002.910156 844.140625 1002.972656 844.019531 1003.058594 843.847656 C 1004.441406 840.953125 1012.527344 821.113281 988.34375 796 Z M 982.488281 655.449219 C 985.539062 660.917969 990.773438 675.601562 977.195312 698.234375 L 963.902344 694.367188 Z M 961.832031 697.375 L 968.722656 699.378906 L 975.609375 701.382812 C 972.414062 708.308594 959.046875 733.679688 933.195312 737.800781 L 931.371094 721.386719 Z M 524.148438 698.234375 C 510.570312 675.597656 515.808594 660.910156 518.859375 655.445312 L 537.441406 694.367188 Z M 568.152344 737.800781 C 542.300781 733.679688 528.929688 708.308594 525.734375 701.382812 L 538.425781 697.691406 L 539.511719 697.375 L 569.976562 721.386719 Z M 500.484375 839.902344 C 498.664062 833.910156 496.660156 818.449219 514.726562 799.207031 L 526.898438 805.804688 Z M 564.421875 786.300781 L 529.558594 803.308594 L 516.945312 796.46875 C 521.535156 790.378906 539.953125 768.484375 566.117188 769.871094 Z M 507.144531 897.164062 C 504.714844 891.390625 501.136719 876.21875 517.128906 855.222656 L 529.914062 860.539062 Z M 532.308594 857.777344 L 519.054688 852.269531 C 522.996094 845.742188 539.089844 822.007812 565.238281 820.761719 L 565.238281 837.277344 Z M 568.703125 837.253906 L 568.703125 820.714844 L 652.269531 820.714844 C 652.367188 826.234375 652.582031 831.746094 652.890625 837.253906 Z M 652.539062 795.371094 L 567.871094 786.632812 L 569.570312 770.175781 L 653.527344 778.84375 C 653.097656 784.34375 652.757812 789.851562 652.539062 795.371094 Z M 927.925781 721.796875 L 929.578125 736.652344 L 929.753906 738.234375 L 844.273438 747.742188 C 843.449219 742.28125 842.515625 736.835938 841.484375 731.414062 Z M 963.824219 600.941406 C 967.367188 606.125 974.027344 620.339844 962.96875 644.003906 L 949.351562 641.523438 Z M 947.601562 644.726562 L 955.371094 646.140625 L 961.714844 647.296875 C 959.246094 654.511719 948.554688 681.121094 923.261719 687.878906 L 919.757812 671.738281 Z M 916.378906 672.496094 L 917.355469 676.992188 L 919.886719 688.660156 L 836.089844 706.839844 L 832.171875 690.765625 Z M 837.585938 413.777344 C 837.585938 398.8125 849.304688 386.53125 864.046875 385.636719 L 864.046875 480.207031 L 865.78125 480.207031 C 879.136719 480.207031 890.003906 469.339844 890.003906 455.980469 L 890.003906 390.464844 C 945.164062 407.335938 974.011719 454.953125 974.011719 493.8125 C 974.011719 553.488281 925.460938 602.039062 865.785156 602.039062 L 837.585938 602.039062 Z M 837.15625 605.503906 L 865.785156 605.503906 C 874.246094 605.503906 882.476562 604.527344 890.40625 602.738281 L 827.40625 671.222656 L 819.03125 636.882812 C 818.304688 633.902344 817.359375 631.015625 816.277344 628.203125 Z M 527.332031 493.8125 C 527.332031 454.953125 556.179688 407.335938 611.339844 390.464844 L 611.339844 455.980469 C 611.339844 469.339844 622.207031 480.207031 635.566406 480.207031 L 637.296875 480.207031 L 637.296875 385.636719 C 652.039062 386.53125 663.757812 398.8125 663.757812 413.777344 L 663.757812 602.039062 L 635.5625 602.039062 C 575.882812 602.039062 527.332031 553.488281 527.332031 493.8125 Z M 610.941406 602.738281 C 618.867188 604.527344 627.101562 605.503906 635.5625 605.503906 L 664.1875 605.503906 L 685.066406 628.203125 C 683.984375 631.011719 683.042969 633.898438 682.3125 636.882812 L 673.941406 671.222656 Z M 538.375 644.003906 C 527.191406 620.089844 533.914062 606.023438 537.507812 600.898438 L 551.996094 641.523438 Z M 578.082031 687.878906 C 552.792969 681.121094 542.097656 654.511719 539.628906 647.296875 L 541.378906 646.980469 L 553.746094 644.726562 L 581.585938 671.738281 Z M 581.460938 688.660156 L 584.964844 672.496094 L 669.171875 690.765625 L 665.253906 706.839844 Z M 571.589844 738.234375 L 573.417969 721.796875 L 659.863281 731.414062 C 658.828125 736.835938 657.894531 742.28125 657.070312 747.746094 Z M 631.472656 1104.320312 C 625.21875 1093.488281 639.550781 1073.007812 662.769531 1059.597656 C 672.851562 1053.777344 683.242188 1050.089844 692.292969 1048.648438 C 695.21875 1054.714844 699.046875 1060.230469 703.59375 1065.039062 C 696.890625 1069.976562 690.34375 1076.449219 684.550781 1084.007812 C 678.839844 1091.460938 674.457031 1099.113281 671.492188 1106.378906 C 653.183594 1113.296875 636.441406 1112.925781 631.472656 1104.320312 Z M 724.128906 1112.410156 C 724.128906 1112.914062 724.140625 1113.414062 724.144531 1113.914062 C 724.074219 1114.003906 724.011719 1114.101562 723.941406 1114.191406 C 707.632812 1135.472656 685.460938 1147.019531 675.535156 1139.417969 C 665.605469 1131.808594 670.992188 1107.398438 687.300781 1086.117188 C 693.027344 1078.644531 699.492188 1072.285156 706.074219 1067.507812 C 712.605469 1073.703125 720.394531 1078.535156 728.964844 1081.597656 C 725.910156 1090.226562 724.128906 1100.824219 724.128906 1112.410156 Z M 750.671875 1161.878906 C 738.164062 1161.878906 727.59375 1139.226562 727.59375 1112.410156 C 727.59375 1101.371094 729.386719 1091.042969 732.371094 1082.703125 C 738.203125 1084.429688 744.347656 1085.363281 750.671875 1085.363281 C 756.996094 1085.363281 763.144531 1084.429688 768.976562 1082.703125 C 771.957031 1091.042969 773.753906 1101.371094 773.753906 1112.410156 C 773.753906 1139.226562 763.183594 1161.878906 750.671875 1161.878906 Z M 825.808594 1139.417969 C 815.878906 1147.03125 793.714844 1135.476562 777.402344 1114.191406 C 777.332031 1114.101562 777.269531 1114.003906 777.199219 1113.914062 C 777.207031 1113.414062 777.21875 1112.917969 777.21875 1112.414062 C 777.21875 1100.824219 775.433594 1090.226562 772.382812 1081.597656 C 780.953125 1078.535156 788.742188 1073.703125 795.269531 1067.507812 C 801.851562 1072.285156 808.316406 1078.644531 814.042969 1086.117188 C 830.351562 1107.398438 835.738281 1131.808594 825.808594 1139.417969 Z M 838.574219 1059.597656 C 861.792969 1073.003906 876.128906 1093.484375 869.871094 1104.320312 C 866.90625 1109.453125 859.753906 1111.871094 849.738281 1111.15625 C 843.558594 1110.707031 836.777344 1109.0625 829.871094 1106.425781 C 826.90625 1099.144531 822.519531 1091.476562 816.792969 1084.007812 C 811 1076.449219 804.453125 1069.976562 797.75 1065.039062 C 802.3125 1060.21875 806.148438 1054.683594 809.078125 1048.59375 C 818.378906 1050.070312 828.667969 1053.878906 838.574219 1059.597656 Z M 810.859375 1032.367188 C 805.230469 1061.066406 779.917969 1081.898438 750.671875 1081.898438 C 721.425781 1081.898438 696.113281 1061.070312 690.488281 1032.367188 L 688.515625 1022.316406 C 704.164062 1040.015625 726.90625 1050.425781 750.671875 1050.425781 C 774.441406 1050.425781 797.179688 1040.015625 812.828125 1022.316406 Z M 814.234375 1015.15625 C 799.28125 1035.074219 775.554688 1046.960938 750.671875 1046.960938 C 725.789062 1046.960938 702.0625 1035.074219 687.113281 1015.15625 L 677.378906 965.519531 C 693.65625 988.421875 720.917969 1002.347656 750.671875 1002.347656 C 780.332031 1002.347656 807.683594 988.394531 823.96875 965.507812 Z M 836.484375 901.683594 L 825.78125 956.265625 C 825.644531 956.507812 825.507812 956.753906 825.367188 957 C 810.554688 982.832031 781.933594 998.882812 750.671875 998.882812 C 719.007812 998.882812 690.253906 982.546875 675.5625 956.242188 L 664.859375 901.65625 C 664.800781 901.386719 664.753906 901.113281 664.699219 900.839844 C 681.953125 931.453125 714.914062 951.210938 750.671875 951.210938 C 786.621094 951.210938 819.410156 931.511719 836.644531 900.863281 C 836.585938 901.136719 836.539062 901.410156 836.484375 901.683594 Z M 839.222656 887.367188 C 825.007812 923.589844 789.777344 947.746094 750.671875 947.746094 C 711.777344 947.746094 676.3125 923.515625 662.125 887.367188 C 658.539062 866.953125 656.460938 846.246094 655.859375 825.484375 C 667.585938 866.8125 705.636719 897.183594 750.671875 897.183594 C 795.707031 897.183594 833.757812 866.816406 845.484375 825.488281 C 844.882812 846.246094 842.804688 866.949219 839.222656 887.367188 Z M 750.671875 893.71875 C 698.234375 893.71875 655.570312 851.058594 655.570312 798.617188 L 655.910156 798.617188 C 656.878906 769.078125 660.820312 739.644531 667.804688 711.011719 L 685.679688 637.707031 C 692.078125 611.464844 713.441406 591.761719 740.097656 587.507812 L 741.105469 587.347656 L 750.671875 561.175781 L 760.242188 587.347656 L 761.246094 587.507812 C 787.902344 591.761719 809.265625 611.464844 815.664062 637.707031 L 833.542969 711.011719 C 840.523438 739.640625 844.464844 769.078125 845.4375 798.617188 L 845.773438 798.617188 C 845.773438 851.058594 803.109375 893.71875 750.671875 893.71875 Z M 984.214844 855.222656 C 1000.214844 876.21875 996.628906 891.394531 994.203125 897.164062 L 971.429688 860.539062 Z M 936.105469 820.761719 C 962.257812 822.007812 978.347656 845.742188 982.289062 852.269531 L 981.582031 852.5625 L 969.039062 857.777344 L 936.105469 837.277344 Z M 849.078125 820.714844 L 932.640625 820.714844 L 932.640625 837.257812 L 848.453125 837.257812 C 848.761719 831.746094 848.976562 826.234375 849.078125 820.714844 Z M 848.808594 795.367188 C 848.585938 789.851562 848.246094 784.34375 847.816406 778.84375 L 931.777344 770.179688 L 933.472656 786.632812 Z M 936.921875 786.300781 L 935.230469 769.871094 C 961.378906 768.429688 979.808594 790.378906 984.402344 796.46875 L 971.789062 803.308594 Z M 1000.859375 839.902344 L 974.449219 805.804688 L 986.617188 799.207031 C 1004.691406 818.453125 1002.679688 833.914062 1000.859375 839.902344 Z M 736.042969 608.609375 C 740.140625 612.710938 740.140625 619.359375 736.042969 623.457031 C 731.941406 627.558594 725.292969 627.558594 721.195312 623.457031 C 717.09375 619.359375 717.09375 612.710938 721.195312 608.609375 C 725.292969 604.511719 731.941406 604.511719 736.042969 608.609375 Z M 783.222656 616.035156 C 783.222656 621.832031 778.523438 626.53125 772.722656 626.53125 C 766.925781 626.53125 762.226562 621.832031 762.226562 616.035156 C 762.226562 610.238281 766.925781 605.535156 772.722656 605.535156 C 778.523438 605.535156 783.222656 610.234375 783.222656 616.035156 Z M 783.222656 616.035156 " fill-opacity="1" fill-rule="nonzero"/></g></svg>